<?xml version="1.0" standalone="no"?>
<!DOCTYPE svg PUBLIC "-//W3C//DTD SVG 20010904//EN"
 "http://www.w3.org/TR/2001/REC-SVG-20010904/DTD/svg10.dtd">
<svg version="1.0" xmlns="http://www.w3.org/2000/svg" class="text-blue-500"
 width="746.000000pt" height="334.000000pt" viewBox="0 0 746.000000 334.000000"
 preserveAspectRatio="xMidYMid meet">

<g  transform="translate(0.000000,334.000000) scale(0.100000,-0.100000)"
fill="#000000" stroke="none">
<path fill="#22c55e" d="M3947 1614 c-4 -4 -7 -226 -7 -494 l0 -486 25 -50 c14 -27 42 -61 62
-76 35 -27 40 -28 172 -29 75 0 145 -2 157 -4 11 -3 33 -1 50 4 29 7 29 8 36
97 10 132 19 124 -133 124 -178 0 -169 -11 -169 216 0 102 4 183 10 195 10 17
22 19 113 19 126 0 175 8 179 27 2 9 1 54 -2 102 l-5 86 -137 5 c-75 3 -140 9
-145 13 -4 5 -10 63 -13 130 l-5 122 -90 3 c-50 1 -94 0 -98 -4z"/>
<path  fill="#22c55e" d="M1910 1548 c-31 -16 -54 -38 -75 -72 l-30 -49 0 -402 0 -402 30 -48
c22 -35 44 -55 79 -73 49 -25 49 -25 395 -26 382 -1 361 -4 428 64 59 60 64
89 61 340 l-3 225 -200 3 c-236 3 -225 8 -225 -109 0 -112 -2 -109 97 -109
115 0 123 -5 123 -84 0 -46 -5 -70 -17 -85 -18 -22 -22 -22 -274 -19 -199 2
-260 6 -272 17 -15 12 -17 47 -17 310 0 218 3 300 12 309 9 9 84 12 274 12
285 0 294 -2 294 -56 0 -17 8 -27 25 -34 29 -11 154 -2 173 13 14 11 16 97 2
148 -12 42 -71 114 -111 134 -23 12 -89 15 -376 15 -342 0 -350 0 -393 -22z"/>
<path fill="#22c55e" d="M615 1413 c-32 -8 -65 -19 -72 -25 -18 -15 -16 -93 3 -112 18 -19 16
-19 107 -5 92 14 100 21 94 77 -8 73 -38 88 -132 65z"/>
<path fill="#22c55e" d="M4933 1350 l-231 -5 -43 -30 c-23 -16 -53 -50 -66 -75 -24 -44 -24
-46 -21 -337 l3 -291 30 -43 c52 -73 73 -83 188 -89 56 -3 210 -3 342 0 l240
5 6 95 c3 52 4 101 2 108 -4 9 -72 12 -292 12 -307 0 -311 1 -311 50 0 49 5
50 300 50 201 0 279 3 288 12 19 19 16 368 -3 416 -29 68 -85 111 -160 121
-22 3 -144 4 -272 1z m235 -242 c15 -13 16 -62 2 -89 -10 -18 -23 -19 -196
-19 -204 0 -198 -2 -198 66 0 61 6 62 202 57 97 -3 183 -10 190 -15z"/>
<path fill="#22c55e" d="M2973 1344 c-9 -4 -13 -35 -13 -104 0 -80 3 -99 16 -104 9 -3 140 -6
293 -6 296 0 301 -1 301 -50 0 -49 -5 -50 -305 -50 -205 0 -284 -3 -293 -12
-16 -16 -16 -336 0 -389 6 -22 27 -57 46 -79 62 -73 60 -73 412 -78 298 -4
317 -4 335 14 17 18 18 36 11 364 -6 329 -8 347 -29 389 -12 25 -39 59 -60 75
l-39 31 -331 2 c-183 1 -338 -1 -344 -3z m585 -520 c18 -5 15 -84 -5 -106 -14
-16 -34 -18 -183 -18 -146 0 -169 2 -182 18 -23 26 -30 56 -19 85 l10 26 158
3 c150 3 192 1 221 -8z"/>
<path fill="#22c55e" d="M5611 1320 c-66 -48 -93 -116 -93 -233 0 -140 38 -222 122 -268 19
-11 80 -14 247 -16 122 0 227 -4 232 -8 15 -9 14 -68 -1 -83 -8 -8 -64 -12
-185 -12 -142 0 -180 3 -206 17 -41 21 -156 29 -185 14 -50 -27 -8 -156 69
-219 47 -37 28 -35 364 -32 236 2 248 4 296 57 55 58 63 88 64 218 0 104 -3
125 -21 160 -27 50 -48 69 -104 94 -41 19 -66 21 -250 21 -217 0 -230 3 -230
46 0 54 -1 54 181 54 128 0 178 -4 206 -15 22 -9 67 -15 118 -15 104 0 113 8
96 83 -13 58 -39 100 -84 137 l-31 25 -281 3 -281 3 -43 -31z"/>
<path fill="#22c55e" d="M1095 1166 c-5 -2 -44 -14 -85 -26 -41 -13 -79 -27 -84 -31 -6 -5 7
-23 30 -43 l39 -34 5 -226 c5 -218 6 -226 28 -248 35 -36 138 -31 250 13 29
11 28 32 -3 49 -38 20 -45 60 -45 251 l0 179 25 16 c32 21 96 11 135 -22 l29
-25 3 -220 3 -220 25 -19 c39 -30 85 -35 169 -16 129 29 145 45 86 83 -45 30
-58 79 -54 208 1 55 2 131 1 169 -2 68 -3 70 -47 112 -28 27 -57 45 -81 50
-39 7 -150 -13 -222 -40 -42 -16 -44 -16 -85 8 -40 23 -101 39 -122 32z"/>
<path fill="#22c55e" d="M615 1153 c-32 -8 -115 -45 -115 -51 0 -3 12 -19 28 -35 l27 -28 3
-234 3 -234 26 -21 c19 -15 40 -20 82 -20 58 1 183 37 187 55 2 6 -11 19 -29
30 -29 19 -33 26 -38 85 -4 36 -7 140 -8 232 0 91 -4 174 -7 183 -14 35 -92
54 -159 38z"/>
</g>
</svg>
